<?xml version="1.0" encoding="utf-8"?>
<!-- Generator: Adobe Illustrator 23.0.1, SVG Export Plug-In . SVG Version: 6.00 Build 0)  -->
<svg version="1.1" id="Layer_1" xmlns="http://www.w3.org/2000/svg" xmlns:xlink="http://www.w3.org/1999/xlink" x="0px" y="0px"
	 viewBox="0 0 1080 1080" style="enable-background:new 0 0 1080 1080;" xml:space="preserve">
<style type="text/css">
	.st0{display:none;}
	.st1{display:inline;fill:#FCF9EA;}
	.st2{fill:#72BCAE;}
</style>
<g class="st0">
	<rect class="st1" width="1080" height="1080"/>
</g>
<g>
	<g>
		<path class="st2" d="M457.9,653.2h-67.9V507.9c0-1,0-2,0.1-2.9c-1.6-14.8-14.2-26.3-29.4-26.3c-15.2,0-27.8,11.5-29.4,26.3
			c0.1,1,0.1,1.9,0.1,2.9v145.3h-67.9V512.7c-0.2-1.5-0.3-3-0.3-4.5c0-53.7,43.7-97.4,97.4-97.4s97.4,43.7,97.4,97.4
			c0,1.5-0.1,3-0.3,4.5V653.2z"/>
		<path class="st2" d="M720.3,663.9c-53.7,0-97.4-43.7-97.4-97.4v-81.9l0.3,0.3v-63.4H691v149.2c2.1,14.3,14.4,25.3,29.3,25.3
			c14.9,0,27.2-11,29.3-25.3V421.4h67.9v63.4l0.3-0.3v81.9C817.7,620.2,774,663.9,720.3,663.9z"/>
		<rect x="508" y="421.4" class="st2" width="67.9" height="231.8"/>
		<polyline class="st2" points="576.3,386.4 576.3,410.6 507.6,410.6 507.6,404.5 		"/>
		<path class="st0" d="M576.7,388.6"/>
		<path class="st0" d="M505.7,399.6"/>
	</g>
</g>
</svg>
