<?xml version="1.0" encoding="utf-8"?>
<!-- Generator: Adobe Illustrator 23.0.1, SVG Export Plug-In . SVG Version: 6.00 Build 0)  -->
<svg version="1.1" id="Layer_1" xmlns="http://www.w3.org/2000/svg" xmlns:xlink="http://www.w3.org/1999/xlink" x="0px" y="0px"
	 viewBox="0 0 1242 2436" style="enable-background:new 0 0 1242 2436;" xml:space="preserve">
<style type="text/css">
	.st0{display:none;}
	.st1{display:inline;fill:#FCF9EA;}
	.st2{fill:#72BCAE;}
</style>
<g class="st0">
	<rect class="st1" width="1242" height="2436"/>
</g>
<g>
	<g>
		<path class="st2" d="M563.6,1289.7h-45.9v-98.2c0-0.7,0-1.4,0.1-2c-1.1-10-9.6-17.8-19.9-17.8c-10.3,0-18.8,7.8-19.9,17.8
			c0.1,0.7,0.1,1.3,0.1,2v98.2h-45.9v-95c-0.1-1-0.2-2-0.2-3c0-36.3,29.5-65.9,65.9-65.9s65.9,29.5,65.9,65.9c0,1-0.1,2-0.2,3v95
			H563.6z"/>
		<path class="st2" d="M741.1,1296.9c-36.3,0-65.9-29.5-65.9-65.9v-55.4l0.2,0.2V1133h45.8v100.9c1.4,9.7,9.7,17.1,19.8,17.1
			s18.4-7.4,19.8-17.1v-101h45.9v42.9l0.2-0.2v55.4C806.9,1267.4,777.4,1296.9,741.1,1296.9z"/>
		<polygon class="st2" points="597.5,1141.1 643.4,1133 643.4,1289.7 597.5,1289.7 		"/>
		<path class="st0" d="M644,1110.8"/>
		<path class="st0" d="M596,1118.2"/>
	</g>
</g>
</svg>
