<?xml version="1.0" encoding="utf-8"?>
<!-- Generator: Adobe Illustrator 23.0.1, SVG Export Plug-In . SVG Version: 6.00 Build 0)  -->
<svg version="1.1" xmlns="http://www.w3.org/2000/svg" xmlns:xlink="http://www.w3.org/1999/xlink" x="0px" y="0px"
	 viewBox="0 0 1242 2436" style="enable-background:new 0 0 1242 2436;" xml:space="preserve">
<style type="text/css">
	.st0{display:none;}
	.st1{display:inline;fill:#FCF9EA;}
	.st2{fill:#72BCAE;}
</style>
<g id="Layer_2" class="st0">
	<rect y="0" class="st1" width="1242" height="2436"/>
</g>
<g id="Layer_1">
	<g>
		<path class="st2" d="M563.6,1289.8h-45.9v-98.3c0-0.7,0-1.3,0.1-2c-1.1-10-9.6-17.8-19.9-17.8c-10.3,0-18.8,7.8-19.9,17.8
			c0.1,0.7,0.1,1.3,0.1,2v98.3h-45.9v-95c-0.1-1-0.2-2-0.2-3.1c0-36.3,29.6-65.9,65.9-65.9c36.3,0,65.9,29.6,65.9,65.9
			c0,1-0.1,2.1-0.2,3.1V1289.8z"/>
		<path class="st2" d="M741.1,1297c-36.3,0-65.9-29.6-65.9-65.9v-55.4l0.2,0.2V1133h45.9v101c1.4,9.7,9.7,17.1,19.8,17.1
			c10,0,18.4-7.4,19.8-17.1v-101h45.9v42.9l0.2-0.2v55.5C806.9,1267.4,777.4,1297,741.1,1297z"/>
		<rect x="597.5" y="1133" class="st2" width="45.9" height="156.8"/>
		<polyline class="st2" points="643.7,1109.3 643.7,1125.7 597.2,1125.7 597.2,1121.5 		"/>
	</g>
</g>
</svg>
